<svg width="245" height="26" viewBox="0 0 245 26" fill="none" xmlns="http://www.w3.org/2000/svg">
<path d="M38.7506 8.33333C38.8216 7.55208 38.6322 6.9405 38.1824 6.49858C37.7326 6.04877 36.975 5.82386 35.9097 5.82386C35.231 5.82386 34.6629 5.90278 34.2052 6.06061C33.7554 6.21843 33.4042 6.43545 33.1517 6.71165C32.907 6.98785 32.7531 7.30745 32.69 7.67045C32.619 7.95455 32.6229 8.21496 32.7018 8.4517C32.7887 8.68055 32.9504 8.88968 33.1872 9.07907C33.4318 9.26847 33.7514 9.43813 34.146 9.58807C34.5484 9.738 35.0259 9.87216 35.5783 9.99053L37.4722 10.4167C38.7664 10.7008 39.8515 11.0756 40.7274 11.5412C41.6113 11.9989 42.3057 12.5434 42.8107 13.1747C43.3158 13.806 43.6472 14.5123 43.8051 15.2936C43.9708 16.0748 43.9747 16.9271 43.8169 17.8504C43.5486 19.4444 42.9291 20.7939 41.9585 21.8987C40.9878 23.0035 39.7213 23.8439 38.1588 24.42C36.5963 24.9961 34.7891 25.2841 32.7374 25.2841C30.6382 25.2841 28.8548 24.9724 27.387 24.349C25.9271 23.7176 24.8696 22.7549 24.2146 21.4607C23.5675 20.1586 23.4097 18.4975 23.7411 16.4773H29.9911C29.8965 17.2191 29.9754 17.8425 30.2279 18.3475C30.4804 18.8526 30.8868 19.2353 31.4471 19.4957C32.0074 19.7562 32.7058 19.8864 33.5423 19.8864C34.2525 19.8864 34.8601 19.7996 35.3652 19.6259C35.8703 19.4523 36.2688 19.2116 36.5607 18.9039C36.8527 18.5961 37.0303 18.2449 37.0934 17.8504C37.1566 17.4874 37.0934 17.1638 36.904 16.8797C36.7146 16.5956 36.3714 16.3392 35.8742 16.1103C35.377 15.8815 34.6944 15.6723 33.8264 15.483L31.5063 14.9621C29.4466 14.4886 27.892 13.7074 26.8425 12.6184C25.7929 11.5294 25.422 10.0379 25.7298 8.14394C25.9823 6.59722 26.6176 5.24779 27.6356 4.09564C28.6614 2.93561 29.9635 2.03598 31.5418 1.39678C33.128 0.749684 34.8838 0.426136 36.8093 0.426136C38.7664 0.426136 40.4039 0.75363 41.7217 1.40862C43.0475 2.0636 43.9984 2.98295 44.5745 4.16667C45.1584 5.35038 45.3163 6.73927 45.048 8.33333H38.7506Z" fill="white"/>
<path d="M62.3413 0.757576H68.9227L66.3422 16.2879C66.0424 18.1345 65.34 19.7325 64.2352 21.0819C63.1383 22.4235 61.7415 23.4612 60.0449 24.1951C58.3482 24.9211 56.4622 25.2841 54.3867 25.2841C52.2955 25.2841 50.5278 24.9211 49.0837 24.1951C47.6396 23.4612 46.59 22.4235 45.935 21.0819C45.2879 19.7325 45.1143 18.1345 45.4142 16.2879L47.9947 0.757576H54.5761L52.0903 15.7197C51.972 16.4694 52.0312 17.1362 52.2679 17.7202C52.5046 18.3041 52.8874 18.7658 53.4161 19.1051C53.9448 19.4366 54.584 19.6023 55.3337 19.6023C56.0913 19.6023 56.7897 19.4366 57.4289 19.1051C58.076 18.7658 58.6126 18.3041 59.0387 17.7202C59.4649 17.1362 59.7371 16.4694 59.8555 15.7197L62.3413 0.757576Z" fill="white"/>
<path d="M70.884 0.757576L66.8594 25H73.4408L74.4825 18.7973L77.1814 15.9091L81.0639 25H88.9238L82.8158 11.553L92.759 0.757576H85.0886L76.187 10.5587H75.8556L77.4655 0.757576H70.884Z" fill="white"/>
<path d="M93.5455 0.757576H101.737L105.099 14.4886H105.383L113.29 0.757576H121.481L117.456 25H111.017L113.337 10.9848H113.148L105.477 24.8106H101.595L98.5171 10.8902H98.3277L95.9603 25H89.5209L93.5455 0.757576Z" fill="white"/>
<path fill-rule="evenodd" clip-rule="evenodd" d="M118.604 25H125.706L127.882 20.3598H135.876L136.502 25H143.604L139.627 0.757576H130.63L118.604 25ZM135.213 15.4356L134.134 7.43371H133.945L130.192 15.4356H135.213Z" fill="white"/>
<path d="M162.075 8.75947C162.044 8.34122 161.957 7.97427 161.815 7.65862C161.673 7.33507 161.471 7.06282 161.211 6.84186C160.951 6.61301 160.627 6.44334 160.24 6.33286C159.862 6.21449 159.416 6.1553 158.903 6.1553C157.798 6.1553 156.792 6.41966 155.884 6.94839C154.977 7.47712 154.215 8.23864 153.6 9.23295C152.992 10.2273 152.574 11.4268 152.345 12.8314C152.108 14.2519 152.088 15.4672 152.286 16.4773C152.483 17.4874 152.909 18.2607 153.564 18.7973C154.227 19.334 155.123 19.6023 156.251 19.6023C157.261 19.6023 158.133 19.4563 158.867 19.1643C159.601 18.8723 160.189 18.458 160.631 17.9214C161.049 17.4142 161.318 16.8223 161.44 16.1458H157.056L157.814 11.4583H168.562L168.017 14.8201C167.654 17.0297 166.873 18.9197 165.674 20.4901C164.482 22.0526 162.998 23.2521 161.223 24.0885C159.447 24.9171 157.498 25.3314 155.375 25.3314C153.024 25.3314 151.039 24.8303 149.421 23.8281C147.803 22.8259 146.647 21.3976 145.953 19.5431C145.266 17.6886 145.132 15.483 145.55 12.9261C145.882 10.9217 146.482 9.14615 147.35 7.59943C148.226 6.05271 149.295 4.74669 150.558 3.68134C151.82 2.60811 153.213 1.79924 154.736 1.25473C156.259 0.702335 157.837 0.426136 159.471 0.426136C160.899 0.426136 162.197 0.631313 163.365 1.04167C164.533 1.44413 165.532 2.0202 166.36 2.76989C167.189 3.51168 167.808 4.39157 168.219 5.40956C168.637 6.42756 168.806 7.54419 168.728 8.75947H162.075Z" fill="white"/>
<path fill-rule="evenodd" clip-rule="evenodd" d="M166.661 25H173.764L175.94 20.3598H183.934L184.559 25H191.661L187.684 0.757576H178.688L166.661 25ZM183.27 15.4356L182.192 7.43371H182.002L178.249 15.4356H183.27Z" fill="white"/>
<path d="M196.854 0.757576H205.045L208.407 14.4886H208.691L216.598 0.757576H224.79L220.765 25H214.326L216.646 10.9848H216.456L208.786 24.8106H204.903L201.826 10.8902H201.636L199.269 25H192.829L196.854 0.757576Z" fill="white"/>
<path d="M226.742 0.757576L222.717 25H240.142L241.041 19.697H230.199L230.861 15.5303H240.852L241.752 10.2273H231.761L232.424 6.06061H243.314L244.214 0.757576H226.742Z" fill="white"/>
<path d="M26.5 1C26.0264 1 15.9975 3.36794 11.459 4.55191H23.2987C23.4304 4.35434 23.5374 4.17623 23.6409 4.004C24.0882 3.25925 24.4696 2.62435 26.5 1Z" fill="white"/>
<path d="M0 25C6.80783 23.4214 19.7896 21 20.5 21C21 23 21.5 24 23 25H0Z" fill="white"/>
<path d="M22 11C21.3685 11 11.0514 12.816 5 14H24C23 13.5 22 12 22 11Z" fill="white"/>
</svg>
